<svg width="720" height="540" viewBox="0 0 720 540" xmlns="http://www.w3.org/2000/svg">
    <g fill="none" fill-rule="evenodd">
        <path d="m307.02 138.919 6.82 6.83-35.008 35.06 35.008 35.064-6.82 6.83-41.824-41.892 41.825-41.892zm108.224 0-6.819 6.83 35.008 35.06-35.008 35.064 6.82 6.83 41.824-41.892-41.825-41.892z" fill="#355086"/>
        <path d="M337.038 218.566c-9.322-2.819-10.137-23.869 2.925-41.857 13.062-17.988 27.757-29.436 39.208-54.545 1.853-4.063 3.085-1.437 3.679.08 15.644 39.985 16.062 111.79-33.383 101.126-13.316 12.677-24.103 20.563-32.362 23.657l-3.265-6.541c21.225-8.177 55.512-44.154 63.676-86.671-.188.01-.315-.085-.475.534-8.655 33.382-34.206 58.974-40.003 64.217z" fill="#57C18B"/>
        <g fill="#355086" fill-rule="nonzero">
            <path d="M169.926 334.299c15.15-15.071 39.619-15.222 54.955-.452l.462.452-7.644 7.604c-11.081-11.024-29.048-11.024-40.13 0-11.08 11.024-11.08 28.897 0 39.92 10.971 10.914 28.69 11.023 39.796.328l.334-.327 7.644 7.604c-15.303 15.223-40.114 15.223-55.417 0-15.303-15.224-15.303-39.906 0-55.129zm266.875-11.418c21.641 0 39.185 17.453 39.185 38.982 0 21.53-17.544 38.982-39.185 38.982-21.642 0-39.186-17.453-39.186-38.982s17.544-38.982 39.186-38.982zm-39.027-12.137.621.608-7.643 7.604c-16.359-16.273-42.88-16.273-59.239 0-16.358 16.273-16.358 42.657 0 58.93 16.195 16.111 42.351 16.272 58.745.484l.494-.483 7.643 7.604c-20.58 20.472-53.946 20.472-74.525 0-20.58-20.473-20.58-53.666 0-74.139 20.374-20.268 53.28-20.47 73.904-.608zm39.027 22.891c-15.672 0-28.376 12.638-28.376 28.228 0 15.59 12.704 28.229 28.376 28.229 15.671 0 28.376-12.639 28.376-28.229s-12.705-28.228-28.376-28.228zm-171.605-10.754c-21.642 0-39.186 17.453-39.186 38.982 0 21.53 17.544 38.982 39.186 38.982 21.641 0 39.185-17.453 39.185-38.982s-17.544-38.982-39.185-38.982zm0 10.754c15.671 0 28.375 12.638 28.375 28.228 0 15.59-12.704 28.229-28.375 28.229-15.672 0-28.376-12.639-28.376-28.229s12.704-28.228 28.376-28.228zm293.89-36.63v103.168h-10.81l.001-11.426a39.17 39.17 0 0 1-28.376 12.098c-21.641 0-39.185-17.453-39.185-38.982s17.544-38.982 39.185-38.982a39.17 39.17 0 0 1 28.376 12.098v-37.973h10.81zm-39.185 36.63c-15.671 0-28.376 12.638-28.376 28.228 0 15.59 12.705 28.229 28.376 28.229 15.672 0 28.376-12.639 28.376-28.229s-12.704-28.228-28.376-28.228zm84.452-10.754c21.425 0 38.834 17.106 39.18 38.338l.005.644v5.377h-67.046l.017.091c2.53 12.826 13.793 22.538 27.374 22.757l.47.004c10.415 0 19.1-3.908 25.409-12.392l.232-.317 8.76 6.302c-8.466 11.647-20.542 17.16-34.401 17.16-21.642 0-39.186-17.453-39.186-38.982s17.544-38.982 39.186-38.982zm0 10.754c-13.653 0-25.054 9.592-27.765 22.372l-.097.48h55.722l-.017-.092c-2.53-12.825-13.792-22.537-27.374-22.756l-.47-.004zm-489.819-10.754c21.425 0 38.834 17.106 39.18 38.338l.006.644v5.377H86.673l.018.091c2.53 12.826 13.792 22.538 27.374 22.757l.47.004c10.415 0 19.1-3.908 25.409-12.392l.232-.317 8.76 6.302c-8.467 11.647-20.542 17.16-34.402 17.16-21.641 0-39.185-17.453-39.185-38.982s17.544-38.982 39.185-38.982zm0 10.754c-13.653 0-25.054 9.592-27.764 22.372l-.097.48h55.722l-.017-.092c-2.53-12.825-13.793-22.537-27.374-22.756l-.47-.004z"/>
        </g>
    </g>
</svg>
