<svg width="36" height="16" viewBox="0 0 36 16" fill="none" xmlns="http://www.w3.org/2000/svg"><path d="M6.67808 2.40004H5.41859V0.891235H2.40184V2.40004H1.14235C0.591794 2.40004 0.139282 2.85268 0.139282 3.4034V14.9684C0.139282 15.5267 0.591794 15.9793 1.14235 15.9793H6.67054C7.22864 15.9793 7.68115 15.5267 7.68115 14.976V3.4034C7.68115 2.85268 7.22864 2.40004 6.67808 2.40004ZM3.15603 14.4705V10.3213H1.64766L4.6644 4.66325V8.81247H6.17278L3.15603 14.4705Z" fill="white"/><path d="M20.8193 2.40004H19.5597V0.891235H16.543V2.40004H15.2835C14.7329 2.40004 14.2804 2.85268 14.2804 3.4034V14.9684C14.2804 15.5267 14.7329 15.9793 15.2835 15.9793H20.8117C21.3698 15.9793 21.8223 15.5267 21.8223 14.976V3.4034C21.8223 2.85268 21.3698 2.40004 20.8193 2.40004ZM17.2972 14.4705V10.3213H15.7888L18.8056 4.66325V8.81247H20.3139L17.2972 14.4705Z" fill="white"/><path d="M34.9605 2.40004H33.701V0.891235H30.6842V2.40004H29.4247C28.8741 2.40004 28.4216 2.85269 28.4216 3.4034V14.9684C28.4216 15.5267 28.8741 15.9793 29.4247 15.9793H34.9529C35.511 15.9793 35.9636 15.5267 35.9636 14.976V3.4034C35.9636 2.85269 35.511 2.40004 34.9605 2.40004ZM31.4384 14.4705V10.3213H29.93L32.9468 4.66325V8.81247H34.4552L31.4384 14.4705Z" fill="white"/></svg>