<svg class="little-spacer-right" height="16" version="1.1" viewBox="0 0 16 16" width="16" xmlns:xlink="http://www.w3.org/1999/xlink" xml:space="preserve" style="fill-rule: evenodd; clip-rule: evenodd; stroke-linejoin: round; stroke-miterlimit: 1.41421;"><path d="M12,7.05H6V5a2,2,0,1,1,4,0,1,1,0,0,0,2,0A4,4,0,1,0,4,5V7.06A1.12,1.12,0,0,0,3,8.17V14a1.12,1.12,0,0,0,1.12,1.12H12A1.12,1.12,0,0,0,13.1,14V8.17A1.12,1.12,0,0,0,12,7.05ZM8,13a2,2,0,1,1,2-2A2,2,0,0,1,8,13Z" style="fill: currentcolor;"></path></svg>